<svg width="330" height="323" viewBox="0 0 330 323" fill="none" xmlns="http://www.w3.org/2000/svg">
<g filter="url(#filter0_d_4650_3921)">
<path d="M165.883 62.5625L165.754 102.949" stroke="#0363FF" stroke-width="4" stroke-miterlimit="10" stroke-linecap="round"/>
<path d="M152.598 92.2192L154.968 90.0266L165.753 101.707L176.62 90.0991L178.974 92.2998L165.737 106.439L152.598 92.2192Z" fill="#0363FF"/>
<path d="M160.854 120.659L122.999 144.246C119.847 146.213 119.839 150.8 122.983 152.775L161.176 176.821C162.789 177.837 164.828 177.853 166.456 176.869L205.512 153.291C208.745 151.34 208.753 146.656 205.537 144.689L166.142 120.643C164.514 119.643 162.474 119.651 160.854 120.659Z" stroke="#0363FF" stroke-width="4" stroke-miterlimit="10"/>
<path d="M117.606 220.472L153.252 240.552C156.646 242.462 160.846 239.988 160.813 236.086L160.394 188.614C160.378 186.825 159.427 185.18 157.879 184.277L122.499 163.625C119.113 161.65 114.857 164.1 114.873 168.018L115.026 216.062C115.026 217.9 116.018 219.577 117.606 220.472Z" stroke="#0363FF" stroke-width="4" stroke-miterlimit="10"/>
<path d="M212.389 220.343L175.807 240.955C172.72 242.696 168.915 240.447 168.947 236.9L169.375 188.356C169.391 186.736 170.253 185.237 171.656 184.423L207.971 163.23C211.043 161.432 214.904 163.657 214.896 167.22L214.743 216.345C214.727 218.005 213.832 219.529 212.389 220.343Z" stroke="#0363FF" stroke-width="4" stroke-miterlimit="10"/>
<path d="M267.76 186.059L227.374 185.93" stroke="#0363FF" stroke-width="4" stroke-miterlimit="10" stroke-linecap="round"/>
<path d="M238.095 172.782L240.287 175.152L228.607 185.938L240.223 196.796L238.014 199.15L223.875 185.922L238.095 172.782Z" fill="#0363FF"/>
<path d="M62 186.059L102.386 185.93" stroke="#0363FF" stroke-width="4" stroke-miterlimit="10" stroke-linecap="round"/>
<path d="M91.7381 199.158L89.5374 196.805L101.145 185.938L89.4648 175.152L91.6575 172.782L105.877 185.922L91.7381 199.158Z" fill="#0363FF"/>
<path d="M144.868 112.364C144.368 111.623 143.368 111.429 142.627 111.929L105.924 136.693C104.498 135.314 102.547 134.452 100.395 134.452C96.0093 134.452 92.4463 138.023 92.4463 142.4C92.4463 145.939 94.7679 148.954 97.9762 149.978V162.996C97.9762 163.891 98.6937 164.609 99.5885 164.609C100.475 164.609 101.201 163.891 101.201 162.996V150.316C105.207 149.913 108.343 146.511 108.343 142.4C108.343 141.32 108.125 140.296 107.73 139.361L144.432 114.597C145.166 114.106 145.368 113.098 144.868 112.364ZM105.118 142.4C105.118 144.738 103.426 146.681 101.201 147.059C100.935 147.108 100.669 147.132 100.395 147.132C99.5159 147.132 98.6856 146.89 97.9762 146.455C96.5978 145.633 95.6707 144.125 95.6707 142.4C95.6707 139.796 97.7908 137.676 100.395 137.676C101.418 137.676 102.37 138.007 103.143 138.571C104.03 139.2 104.691 140.143 104.965 141.231C105.07 141.602 105.118 141.997 105.118 142.4Z" fill="#0363FF"/>
<path d="M185.327 114.597L222.029 139.361C221.634 140.296 221.416 141.32 221.416 142.4C221.416 146.511 224.552 149.913 228.559 150.316V162.996C228.559 163.891 229.284 164.609 230.171 164.609C231.066 164.609 231.783 163.891 231.783 162.996V149.978C234.991 148.954 237.313 145.939 237.313 142.4C237.313 138.023 233.75 134.452 229.365 134.452C227.212 134.452 225.262 135.314 223.835 136.693L187.133 111.929C186.391 111.429 185.391 111.623 184.892 112.364C184.392 113.098 184.593 114.106 185.327 114.597ZM224.794 141.231C225.068 140.143 225.729 139.2 226.616 138.571C227.39 138.007 228.341 137.676 229.365 137.676C231.968 137.676 234.089 139.796 234.089 142.4C234.089 144.125 233.162 145.633 231.783 146.455C231.074 146.89 230.243 147.132 229.365 147.132C229.091 147.132 228.825 147.108 228.559 147.06C226.334 146.681 224.641 144.738 224.641 142.4C224.641 141.997 224.689 141.602 224.794 141.231Z" fill="#0363FF"/>
<path d="M151.55 258.142L107.73 233.378C108.125 232.443 108.343 231.419 108.343 230.339C108.343 226.228 105.207 222.826 101.201 222.423V209.743C101.201 208.848 100.475 208.13 99.5885 208.13C98.6937 208.13 97.9762 208.848 97.9762 209.743V222.761C94.7679 223.785 92.4463 226.8 92.4463 230.339C92.4463 234.716 96.0093 238.287 100.395 238.287C102.547 238.287 104.498 237.425 105.924 236.046L149.745 260.81C150.486 261.31 151.486 261.116 151.986 260.375C152.486 259.641 152.284 258.633 151.55 258.142ZM104.965 231.508C104.691 232.596 104.03 233.539 103.143 234.168C102.37 234.732 101.418 235.063 100.395 235.063C97.7908 235.063 95.6707 232.943 95.6707 230.339C95.6707 228.614 96.5978 227.106 97.9762 226.284C98.6856 225.849 99.5159 225.607 100.395 225.607C100.669 225.607 100.935 225.631 101.201 225.679C103.426 226.058 105.118 228.001 105.118 230.339C105.118 230.742 105.07 231.137 104.965 231.508Z" fill="#0363FF"/>
<path d="M178.056 261.85C178.555 262.591 179.555 262.785 180.297 262.285L223.827 236.046C225.253 237.425 227.204 238.287 229.357 238.287C233.742 238.287 237.305 234.716 237.305 230.339C237.305 226.8 234.983 223.785 231.775 222.761V209.743C231.775 208.848 231.057 208.13 230.163 208.13C229.276 208.13 228.55 208.848 228.55 209.743V222.423C224.544 222.826 221.408 226.228 221.408 230.339C221.408 231.419 221.626 232.443 222.021 233.378L178.491 259.617C177.757 260.109 177.556 261.116 178.056 261.85ZM224.641 230.339C224.641 228.001 226.334 226.058 228.559 225.68C228.825 225.631 229.091 225.607 229.365 225.607C230.243 225.607 231.074 225.849 231.783 226.284C233.161 227.106 234.088 228.614 234.088 230.339C234.088 232.943 231.968 235.063 229.365 235.063C228.341 235.063 227.39 234.732 226.616 234.168C225.729 233.539 225.068 232.596 224.794 231.508C224.689 231.137 224.641 230.742 224.641 230.339Z" fill="#0363FF"/>
<path d="M122.499 163.641V223.228" stroke="#0363FF" stroke-miterlimit="10"/>
<path d="M130.892 169.823V229.419" stroke="#0363FF" stroke-miterlimit="10"/>
<path d="M139.291 174.402V233.998" stroke="#0363FF" stroke-miterlimit="10"/>
<path d="M147.683 178.973V238.569" stroke="#0363FF" stroke-miterlimit="10"/>
<path d="M160.153 202.197L113.552 175.007" stroke="#0363FF" stroke-miterlimit="10"/>
<path d="M160.153 213.225L113.552 186.026" stroke="#0363FF" stroke-miterlimit="10"/>
<path d="M160.153 224.244L113.552 197.046" stroke="#0363FF" stroke-miterlimit="10"/>
<path d="M160.153 235.264L113.552 208.065" stroke="#0363FF" stroke-miterlimit="10"/>
<path d="M179.225 238.569V178.973" stroke="#0363FF" stroke-miterlimit="10"/>
<path d="M187.625 232.386V172.79" stroke="#0363FF" stroke-miterlimit="10"/>
<path d="M196.017 227.807V168.211" stroke="#0363FF" stroke-miterlimit="10"/>
<path d="M204.416 223.229V163.641" stroke="#0363FF" stroke-miterlimit="10"/>
<path d="M216.886 200.013L170.285 227.203" stroke="#0363FF" stroke-miterlimit="10"/>
<path d="M216.886 188.985L170.285 216.183" stroke="#0363FF" stroke-miterlimit="10"/>
<path d="M216.886 177.966L170.285 205.164" stroke="#0363FF" stroke-miterlimit="10"/>
<path d="M216.886 166.946L170.285 194.144" stroke="#0363FF" stroke-miterlimit="10"/>
<path d="M125.948 142.408L173.211 172.79" stroke="#0363FF" stroke-miterlimit="10"/>
<path d="M136.525 137.426L183.78 167.809" stroke="#0363FF" stroke-miterlimit="10"/>
<path d="M147.094 130.832L194.356 161.215" stroke="#0363FF" stroke-miterlimit="10"/>
<path d="M154.155 122.94L201.418 153.323" stroke="#0363FF" stroke-miterlimit="10"/>
<path d="M124.337 154.935L171.599 124.553" stroke="#0363FF" stroke-miterlimit="10"/>
<path d="M134.913 159.917L182.167 129.542" stroke="#0363FF" stroke-miterlimit="10"/>
<path d="M145.481 166.511L192.744 136.137" stroke="#0363FF" stroke-miterlimit="10"/>
<path d="M152.542 174.402L199.804 144.02" stroke="#0363FF" stroke-miterlimit="10"/>
</g>
<defs>
<filter id="filter0_d_4650_3921" x="0" y="0.5625" width="329.76" height="322" filterUnits="userSpaceOnUse" color-interpolation-filters="sRGB">
<feFlood flood-opacity="0" result="BackgroundImageFix"/>
<feColorMatrix in="SourceAlpha" type="matrix" values="0 0 0 0 0 0 0 0 0 0 0 0 0 0 0 0 0 0 127 0" result="hardAlpha"/>
<feOffset/>
<feGaussianBlur stdDeviation="30"/>
<feComposite in2="hardAlpha" operator="out"/>
<feColorMatrix type="matrix" values="0 0 0 0 0.247222 0 0 0 0 0.730304 0 0 0 0 1 0 0 0 1 0"/>
<feBlend mode="normal" in2="BackgroundImageFix" result="effect1_dropShadow_4650_3921"/>
<feBlend mode="normal" in="SourceGraphic" in2="effect1_dropShadow_4650_3921" result="shape"/>
</filter>
</defs>
</svg>
