<svg width="346" height="361" viewBox="0 0 346 361" fill="none" xmlns="http://www.w3.org/2000/svg">
<g filter="url(#filter0_d_4650_3731)">
<g filter="url(#filter1_d_4650_3731)">
<path d="M110.432 244.868C93.5212 228.538 83 205.623 83 180.26C83 130.659 123.206 90.4533 172.806 90.4533C186.473 90.4533 199.431 93.5074 211.023 98.9669" stroke="#0363FF" stroke-width="5" stroke-miterlimit="10"/>
<path d="M193.813 108.148L192.576 104.69L209.634 98.6119L202.326 82.0437L205.686 80.5625L214.586 100.742L193.813 108.148Z" fill="#0363FF"/>
<path d="M235.665 116.257C252.576 132.587 263.097 155.502 263.097 180.866C263.097 230.466 222.891 270.672 173.291 270.672C159.624 270.672 146.666 267.618 135.074 262.158" stroke="#0363FF" stroke-width="5" stroke-miterlimit="10"/>
<path d="M152.285 252.971L153.521 256.436L136.463 262.513L143.771 279.082L140.411 280.563L131.512 260.377L152.285 252.971Z" fill="#0363FF"/>
</g>
<path d="M227.9 177.536L156.939 119.881C154.389 117.81 150.578 119.623 150.578 122.911V238.215C150.578 241.496 154.389 243.316 156.939 241.244L227.9 183.589C229.818 182.028 229.818 179.097 227.9 177.536Z" stroke="#0363FF" stroke-width="5" stroke-miterlimit="10"/>
<path d="M144.003 124.318L139.952 121.024C136.836 118.492 132.178 120.711 132.178 124.724V236.389C132.178 240.403 136.836 242.621 139.952 240.089L144.003 236.795" stroke="#0363FF" stroke-width="3" stroke-miterlimit="10"/>
<path d="M139.547 240.095V121.03" stroke="#0363FF" stroke-width="0.5" stroke-miterlimit="10"/>
<path d="M159.191 240.095V121.03" stroke="#0363FF" stroke-miterlimit="10"/>
<path d="M169.227 231.792V129.868" stroke="#0363FF" stroke-miterlimit="10"/>
<path d="M179.262 220.446V138.017" stroke="#0363FF" stroke-miterlimit="10"/>
<path d="M189.301 215.438V146.173" stroke="#0363FF" stroke-miterlimit="10"/>
<path d="M199.336 206.797V157.045" stroke="#0363FF" stroke-miterlimit="10"/>
<path d="M209.371 200.208V162.478" stroke="#0363FF" stroke-miterlimit="10"/>
<path d="M219.408 190.491V170.462" stroke="#0363FF" stroke-miterlimit="10"/>
<path d="M150.58 180.56H228.762" stroke="#0363FF" stroke-miterlimit="10"/>
<path d="M150.58 166.983H214.91" stroke="#0363FF" stroke-miterlimit="10"/>
<path d="M150.58 153.401H198.199" stroke="#0363FF" stroke-miterlimit="10"/>
<path d="M150.58 139.824H179.263" stroke="#0363FF" stroke-miterlimit="10"/>
<path d="M150.58 126.242H164.992" stroke="#0363FF" stroke-miterlimit="10"/>
<path d="M150.58 193.189H214.91" stroke="#0363FF" stroke-miterlimit="10"/>
<path d="M150.58 206.766H198.199" stroke="#0363FF" stroke-miterlimit="10"/>
<path d="M150.58 220.348H179.263" stroke="#0363FF" stroke-miterlimit="10"/>
<path d="M150.58 233.925H164.992" stroke="#0363FF" stroke-miterlimit="10"/>
<path d="M115.763 258.572C120.123 258.572 123.658 255.037 123.658 250.676C123.658 246.316 120.123 242.781 115.763 242.781C111.402 242.781 107.867 246.316 107.867 250.676C107.867 255.037 111.402 258.572 115.763 258.572Z" stroke="#0363FF" stroke-width="4" stroke-miterlimit="10"/>
<path d="M228.784 118.95C233.145 118.95 236.68 115.415 236.68 111.055C236.68 106.694 233.145 103.159 228.784 103.159C224.424 103.159 220.889 106.694 220.889 111.055C220.889 115.415 224.424 118.95 228.784 118.95Z" stroke="#0363FF" stroke-width="4" stroke-miterlimit="10"/>
</g>
<defs>
<filter id="filter0_d_4650_3731" x="20.5" y="20.5625" width="305.098" height="320" filterUnits="userSpaceOnUse" color-interpolation-filters="sRGB">
<feFlood flood-opacity="0" result="BackgroundImageFix"/>
<feColorMatrix in="SourceAlpha" type="matrix" values="0 0 0 0 0 0 0 0 0 0 0 0 0 0 0 0 0 0 127 0" result="hardAlpha"/>
<feOffset/>
<feGaussianBlur stdDeviation="30"/>
<feComposite in2="hardAlpha" operator="out"/>
<feColorMatrix type="matrix" values="0 0 0 0 0.247222 0 0 0 0 0.730304 0 0 0 0 1 0 0 0 1 0"/>
<feBlend mode="normal" in2="BackgroundImageFix" result="effect1_dropShadow_4650_3731"/>
<feBlend mode="normal" in="SourceGraphic" in2="effect1_dropShadow_4650_3731" result="shape"/>
</filter>
<filter id="filter1_d_4650_3731" x="0.5" y="0.5625" width="345.098" height="360" filterUnits="userSpaceOnUse" color-interpolation-filters="sRGB">
<feFlood flood-opacity="0" result="BackgroundImageFix"/>
<feColorMatrix in="SourceAlpha" type="matrix" values="0 0 0 0 0 0 0 0 0 0 0 0 0 0 0 0 0 0 127 0" result="hardAlpha"/>
<feOffset/>
<feGaussianBlur stdDeviation="40"/>
<feComposite in2="hardAlpha" operator="out"/>
<feColorMatrix type="matrix" values="0 0 0 0 0.165278 0 0 0 0 0.700946 0 0 0 0 1 0 0 0 1 0"/>
<feBlend mode="normal" in2="BackgroundImageFix" result="effect1_dropShadow_4650_3731"/>
<feBlend mode="normal" in="SourceGraphic" in2="effect1_dropShadow_4650_3731" result="shape"/>
</filter>
</defs>
</svg>
