<svg width="425" height="401" viewBox="0 0 425 401" fill="none" xmlns="http://www.w3.org/2000/svg">
<g filter="url(#filter0_d_4771_20068)">
<path d="M318.394 246.049C319.797 240.983 320.545 235.651 320.545 230.146C320.545 200.821 299.32 176.366 271.423 171.324C271.275 138.489 244.521 111.828 211.651 111.828C178.708 111.828 151.904 138.617 151.879 171.561C124.593 177.09 103.993 201.26 103.993 230.146C103.993 235.651 104.741 240.983 106.145 246.049C102.481 248.073 100 251.977 100 256.453C100 263.011 105.332 268.343 111.89 268.343C113.683 268.343 115.386 267.944 116.917 267.225C127.872 281.046 144.804 289.923 163.77 289.923C183.71 289.923 201.405 280.105 212.272 265.049C223.133 280.105 240.828 289.923 260.769 289.923C279.734 289.923 296.666 281.046 307.621 267.225C309.152 267.944 310.856 268.343 312.648 268.343C319.206 268.343 324.538 263.011 324.538 256.453C324.538 251.977 322.057 248.073 318.394 246.049ZM211.651 114.29C243.034 114.29 268.607 139.641 268.956 170.94C266.278 170.566 263.546 170.374 260.769 170.374C244.669 170.374 230.036 176.77 219.273 187.168C217.21 185.445 214.546 184.401 211.651 184.401C209.066 184.401 206.669 185.233 204.714 186.642C194.005 176.553 179.599 170.374 163.77 170.374C160.565 170.374 157.418 170.625 154.346 171.118C154.607 139.735 180.214 114.29 211.651 114.29ZM199.761 196.297C199.761 200.728 202.203 204.603 205.812 206.646C202.986 213.219 201.307 220.397 201.036 227.926C175.128 223.056 155.311 200.688 154.381 173.609C157.433 173.097 160.574 172.836 163.77 172.836C178.87 172.836 192.622 178.7 202.868 188.281C200.943 190.398 199.761 193.215 199.761 196.297ZM204.64 190.004C205.182 189.389 205.812 188.847 206.506 188.399C207.983 187.429 209.756 186.863 211.651 186.863C213.867 186.863 215.91 187.631 217.52 188.921C218.165 189.433 218.741 190.029 219.234 190.694C220.396 192.259 221.085 194.199 221.085 196.297C221.085 199.334 219.637 202.042 217.397 203.766C216.747 204.268 216.033 204.686 215.27 205.001C214.157 205.469 212.931 205.725 211.651 205.725C210.765 205.725 209.903 205.602 209.091 205.371C208.289 205.144 207.53 204.814 206.831 204.396C204.074 202.751 202.223 199.733 202.223 196.297C202.223 193.884 203.138 191.673 204.64 190.004ZM208.067 207.631C209.199 207.995 210.406 208.187 211.651 208.187C213.301 208.187 214.876 207.847 216.304 207.237C219.125 213.677 220.794 220.732 221.045 228.142C217.988 228.654 214.852 228.915 211.651 228.915C208.879 228.915 206.157 228.718 203.488 228.329C203.71 221.003 205.325 214.021 208.067 207.631ZM218.461 206.035C221.533 203.884 223.547 200.319 223.547 196.297C223.547 193.52 222.591 190.96 220.981 188.936C231.296 178.971 245.333 172.836 260.769 172.836C263.541 172.836 266.263 173.033 268.932 173.422C268.1 200.157 248.863 222.337 223.492 227.679C223.182 220.008 221.415 212.702 218.461 206.035ZM117.543 263.995C116.883 264.488 116.159 264.901 115.386 265.207C114.303 265.645 113.126 265.881 111.89 265.881C106.691 265.881 102.462 261.652 102.462 256.453C102.462 253.095 104.224 250.145 106.873 248.476C107.567 248.033 108.321 247.684 109.123 247.438C110 247.167 110.93 247.024 111.89 247.024C117.09 247.024 121.319 251.253 121.319 256.453C121.319 259.535 119.832 262.272 117.543 263.995ZM163.77 287.461C145.7 287.461 129.551 279.057 119.044 265.945C121.92 263.774 123.781 260.327 123.781 256.453C123.781 249.894 118.444 244.562 111.89 244.562C110.689 244.562 109.527 244.739 108.429 245.079C107.139 240.318 106.455 235.311 106.455 230.146C106.455 202.604 125.991 179.532 151.934 174.067C153.081 202.289 173.888 225.528 200.997 230.427C201.046 242.401 204.645 253.558 210.785 262.893C200.416 277.737 183.208 287.461 163.77 287.461ZM203.463 230.811C206.137 231.185 208.874 231.377 211.651 231.377C214.857 231.377 218.008 231.121 221.08 230.633C220.991 241.652 217.771 251.948 212.272 260.657C206.797 251.992 203.582 241.766 203.463 230.811ZM260.769 287.461C241.33 287.461 224.118 277.732 213.754 262.888C219.938 253.489 223.537 242.248 223.547 230.185C250.129 224.799 270.365 201.722 271.384 173.826C297.936 178.813 318.084 202.17 318.084 230.146C318.084 235.311 317.399 240.318 316.109 245.079C315.011 244.739 313.849 244.562 312.648 244.562C306.095 244.562 300.758 249.894 300.758 256.453C300.758 260.327 302.619 263.774 305.494 265.945C294.987 279.057 278.838 287.461 260.769 287.461ZM312.648 265.881C311.412 265.881 310.236 265.645 309.152 265.207C308.379 264.901 307.656 264.488 306.996 263.995C304.706 262.272 303.219 259.535 303.219 256.453C303.219 251.253 307.449 247.024 312.648 247.024C313.608 247.024 314.539 247.167 315.415 247.438C316.218 247.684 316.971 248.033 317.665 248.476C320.314 250.145 322.077 253.095 322.077 256.453C322.077 261.652 317.847 265.881 312.648 265.881Z" fill="#0363FF"/>
<path d="M190.161 178.365H154.342" stroke="#0363FF" stroke-miterlimit="10"/>
<path d="M201.293 186.863H154.342" stroke="#0363FF" stroke-miterlimit="10"/>
<path d="M201.292 195.361H159.506" stroke="#0363FF" stroke-miterlimit="10"/>
<path d="M206.833 204.396L163.648 203.859" stroke="#0363FF" stroke-miterlimit="10"/>
<path d="M203.7 212.357H169.467" stroke="#0363FF" stroke-miterlimit="10"/>
<path d="M201.292 220.855H180.396" stroke="#0363FF" stroke-miterlimit="10"/>
<path d="M159.338 171.669V195.361" stroke="#0363FF" stroke-miterlimit="10"/>
<path d="M167.836 170.537V209.423" stroke="#0363FF" stroke-miterlimit="10"/>
<path d="M176.334 173.117V217.886" stroke="#0363FF" stroke-miterlimit="10"/>
<path d="M185.37 174.702L184.838 222.209" stroke="#0363FF" stroke-miterlimit="10"/>
<path d="M193.336 178.562V226.384" stroke="#0363FF" stroke-miterlimit="10"/>
<path d="M201.834 185.352V220.855" stroke="#0363FF" stroke-miterlimit="10"/>
<path d="M221.72 234.213H203.301" stroke="#0363FF" stroke-miterlimit="10"/>
<path d="M221.085 242.711H203.301" stroke="#0363FF" stroke-miterlimit="10"/>
<path d="M217.782 251.209H206.832" stroke="#0363FF" stroke-miterlimit="10"/>
<path d="M207.895 228.964V256.817" stroke="#0363FF" stroke-miterlimit="10"/>
<path d="M216.93 230.55L216.398 254.306" stroke="#0363FF" stroke-miterlimit="10"/>
<path d="M233.146 178.365H268.965" stroke="#0363FF" stroke-miterlimit="10"/>
<path d="M222.016 186.863H268.967" stroke="#0363FF" stroke-miterlimit="10"/>
<path d="M222.016 195.361H263.802" stroke="#0363FF" stroke-miterlimit="10"/>
<path d="M216.477 204.396L259.661 203.859" stroke="#0363FF" stroke-miterlimit="10"/>
<path d="M219.607 212.357H253.841" stroke="#0363FF" stroke-miterlimit="10"/>
<path d="M222.016 220.855H242.911" stroke="#0363FF" stroke-miterlimit="10"/>
<path d="M263.969 171.669V195.361" stroke="#0363FF" stroke-miterlimit="10"/>
<path d="M255.471 170.537V209.423" stroke="#0363FF" stroke-miterlimit="10"/>
<path d="M246.973 173.117V217.886" stroke="#0363FF" stroke-miterlimit="10"/>
<path d="M237.938 174.702L238.469 222.209" stroke="#0363FF" stroke-miterlimit="10"/>
<path d="M229.973 178.562V226.384" stroke="#0363FF" stroke-miterlimit="10"/>
<path d="M221.475 185.352V220.855" stroke="#0363FF" stroke-miterlimit="10"/>
<path d="M163.645 300.563C163.103 300.563 162.66 300.12 162.66 299.578C162.66 299.036 163.103 298.593 163.645 298.593C178.844 298.593 193.216 293.694 205.209 284.428C205.638 284.098 206.258 284.177 206.593 284.605C206.928 285.034 206.844 285.654 206.416 285.989C194.072 295.521 179.282 300.563 163.645 300.563Z" fill="#0363FF"/>
<path d="M104.238 196.346C104.066 196.346 103.893 196.302 103.736 196.208C103.268 195.932 103.115 195.327 103.391 194.859C111.274 181.58 123.494 171.132 137.807 165.451C138.314 165.249 138.885 165.495 139.087 166.002C139.289 166.509 139.042 167.08 138.535 167.282C124.626 172.806 112.746 182.959 105.085 195.868C104.903 196.174 104.573 196.346 104.238 196.346Z" fill="#0363FF"/>
<path d="M262.492 300.563C246.855 300.563 232.064 295.521 219.721 285.989C219.293 285.654 219.209 285.039 219.544 284.605C219.874 284.177 220.494 284.093 220.927 284.428C232.921 293.694 247.298 298.593 262.492 298.593C263.033 298.593 263.477 299.036 263.477 299.578C263.477 300.12 263.033 300.563 262.492 300.563Z" fill="#0363FF"/>
<path d="M321.9 196.346C321.565 196.346 321.235 196.174 321.053 195.863C313.392 182.954 301.511 172.806 287.602 167.277C287.095 167.075 286.849 166.504 287.051 165.997C287.253 165.49 287.824 165.244 288.331 165.446C302.644 171.132 314.864 181.575 322.747 194.854C323.022 195.322 322.87 195.927 322.402 196.203C322.245 196.302 322.067 196.346 321.9 196.346Z" fill="#0363FF"/>
<path d="M233.479 106.368C233.37 106.368 233.262 106.348 233.154 106.314C218.979 101.38 203.351 101.267 189.152 106.004C188.635 106.176 188.079 105.895 187.906 105.383C187.734 104.866 188.015 104.31 188.527 104.138C203.135 99.2633 219.215 99.3766 233.799 104.458C234.311 104.635 234.582 105.196 234.404 105.713C234.266 106.112 233.882 106.368 233.479 106.368Z" fill="#0363FF"/>
</g>
<defs>
<filter id="filter0_d_4771_20068" x="0" y="0.562622" width="424.539" height="400" filterUnits="userSpaceOnUse" color-interpolation-filters="sRGB">
<feFlood flood-opacity="0" result="BackgroundImageFix"/>
<feColorMatrix in="SourceAlpha" type="matrix" values="0 0 0 0 0 0 0 0 0 0 0 0 0 0 0 0 0 0 127 0" result="hardAlpha"/>
<feOffset/>
<feGaussianBlur stdDeviation="50"/>
<feComposite in2="hardAlpha" operator="out"/>
<feColorMatrix type="matrix" values="0 0 0 0 0.247222 0 0 0 0 0.730304 0 0 0 0 1 0 0 0 1 0"/>
<feBlend mode="normal" in2="BackgroundImageFix" result="effect1_dropShadow_4771_20068"/>
<feBlend mode="normal" in="SourceGraphic" in2="effect1_dropShadow_4771_20068" result="shape"/>
</filter>
</defs>
</svg>
